<svg width="26" height="26" viewBox="0 0 26 26" fill="none" xmlns="http://www.w3.org/2000/svg">
<path fill-rule="evenodd" clip-rule="evenodd" d="M0.411621 0.237549H25.4116V25.2375H0.411621V0.237549Z" fill="white"/>
<path fill-rule="evenodd" clip-rule="evenodd" d="M1.51194 23.2847H1.44048C1.44048 23.249 1.42258 23.1953 1.42258 23.1773C1.42258 23.1595 1.42258 23.1238 1.36888 23.1238H1.26149V23.2847H1.2078V22.909H1.36888C1.44048 22.909 1.49404 22.9271 1.49404 22.9984C1.49404 23.0521 1.47614 23.0701 1.45837 23.0878C1.47627 23.1058 1.49404 23.1237 1.49404 23.1595V23.231C1.49404 23.249 1.49404 23.249 1.51194 23.249V23.2847ZM1.44048 23.0164C1.44048 22.9627 1.40468 22.9627 1.38678 22.9627H1.26149V23.0701H1.36888C1.40468 23.0701 1.44048 23.0521 1.44048 23.0164V23.0164ZM1.74462 23.0879C1.74462 22.8734 1.56576 22.6943 1.33309 22.6943C1.11844 22.6943 0.939453 22.8734 0.939453 23.0879C0.939453 23.3204 1.11844 23.4996 1.33309 23.4996C1.56563 23.4994 1.74462 23.3204 1.74462 23.0879ZM1.69092 23.0879C1.69092 23.2848 1.52997 23.4278 1.33309 23.4278C1.1362 23.4278 0.993148 23.2847 0.993148 23.0879C0.993148 22.909 1.13633 22.748 1.33309 22.748C1.52984 22.748 1.69092 22.909 1.69092 23.0879ZM23.7336 15.8597C23.7336 16.3965 23.3936 16.6467 22.7852 16.6467H21.6225V16.1099H22.7852C22.8926 16.1099 22.9821 16.0921 23.018 16.0565C23.0537 16.0205 23.0895 15.9668 23.0895 15.8954C23.0895 15.8237 23.0538 15.7522 23.018 15.7165C22.9821 15.6806 22.9106 15.6628 22.8032 15.6628C22.2488 15.6448 21.5509 15.6806 21.5509 14.8935C21.5509 14.5355 21.7834 14.1419 22.4096 14.1419H23.6083V14.6787H22.499C22.3918 14.6787 22.3201 14.6787 22.2664 14.7144C22.2127 14.7681 22.1771 14.8217 22.1771 14.9112C22.1771 15.0007 22.2307 15.0544 22.3022 15.0904C22.3739 15.1081 22.4455 15.126 22.535 15.126H22.8569C23.1969 15.126 23.4116 15.1975 23.5548 15.3229C23.662 15.4481 23.7336 15.6093 23.7336 15.8597V15.8597ZM21.2108 15.3229C21.0676 15.1975 20.8528 15.126 20.5129 15.126H20.191C20.1016 15.126 20.0299 15.108 19.9584 15.0904C19.8867 15.0544 19.8333 15.0007 19.8333 14.9112C19.8333 14.8217 19.8511 14.7681 19.9226 14.7144C19.9763 14.6787 20.0478 14.6787 20.1552 14.6787H21.2645V14.1419H20.0658C19.4216 14.1419 19.2068 14.5355 19.2068 14.8935C19.2068 15.6805 19.9048 15.6448 20.4595 15.6628C20.5666 15.6628 20.6383 15.6806 20.674 15.7165C20.7097 15.7522 20.7457 15.8237 20.7457 15.8954C20.7457 15.9668 20.7098 16.0205 20.674 16.0565C20.6203 16.0921 20.5488 16.1099 20.4414 16.1099H19.2784V16.6467H20.4414C21.0496 16.6467 21.3897 16.3964 21.3897 15.8597C21.3897 15.6093 21.3182 15.4481 21.2108 15.3229V15.3229ZM18.9206 16.1281H17.5074V15.627H18.8849V15.1263H17.5074V14.6609H18.9206V14.1421H16.9169V16.6469H18.9206V16.1281ZM16.2727 14.2674C16.0758 14.16 15.8433 14.142 15.5391 14.142H14.1616V16.6467H14.7698V15.7343H15.414C15.6285 15.7343 15.7539 15.7523 15.8434 15.8417C15.9508 15.9668 15.9508 16.1816 15.9508 16.3427V16.6467H16.541V16.1636C16.541 15.9311 16.5233 15.8237 16.4517 15.6985C16.398 15.6268 16.2909 15.5374 16.1477 15.4837C16.3085 15.4303 16.5771 15.2155 16.5771 14.8217C16.577 14.5356 16.4696 14.3746 16.2727 14.2674V14.2674ZM12.8733 14.142H10.9589L10.1895 14.9651L9.45592 14.142H7.04056V16.6467H9.42025L10.1896 15.8237L10.9232 16.6467H12.0862V15.806H12.8377C13.3564 15.806 13.8755 15.6628 13.8755 14.9651C13.8754 14.2852 13.3385 14.142 12.8733 14.142ZM15.7896 15.1798C15.7002 15.2155 15.6107 15.2155 15.5033 15.2155L14.7698 15.2335V14.6608H15.5033C15.6107 14.6608 15.7181 14.6608 15.7896 14.7145C15.8613 14.7504 15.9147 14.8219 15.9147 14.9293C15.9147 15.0367 15.8613 15.1261 15.7896 15.1798V15.1798ZM12.8733 15.305H12.0861V14.6608H12.8733C13.0881 14.6608 13.2312 14.7504 13.2312 14.9651C13.2312 15.1798 13.088 15.305 12.8733 15.305ZM10.5652 15.3944L11.4955 14.4105V16.4322L10.5652 15.3944ZM9.11598 16.1281H7.63094V15.627H8.9549V15.1263H7.63094V14.6609H9.13388L9.79586 15.3945L9.11598 16.1281V16.1281ZM22.0695 12.3349H21.2108L20.0836 10.4563V12.3349H18.8672L18.6344 11.7802H17.382L17.1495 12.3349H16.4516C16.1653 12.3349 15.7896 12.2633 15.5751 12.0486C15.3782 11.8339 15.2708 11.5477 15.2708 11.1003C15.2708 10.7246 15.3245 10.3847 15.5927 10.1163C15.7715 9.91944 16.0937 9.83008 16.5051 9.83008H17.0776V10.3669H16.5051C16.2906 10.3669 16.1652 10.4027 16.04 10.5101C15.9326 10.6175 15.8789 10.8142 15.8789 11.0826C15.8789 11.3509 15.9326 11.5478 16.04 11.6731C16.1294 11.7624 16.2906 11.7982 16.4514 11.7982H16.7199L17.5786 9.8302H18.4733L19.4752 12.1919V9.83008H20.4056L21.4613 11.5656V9.83008H22.0694V12.3349H22.0695V12.3349ZM14.9666 9.83008H14.3585V12.3349H14.9666V9.83008V9.83008ZM13.6963 9.93747C13.4994 9.83008 13.2849 9.83008 12.9807 9.83008H11.6029V12.3349H12.1933V11.4224H12.8374C13.0522 11.4224 13.1954 11.4403 13.2847 11.5298C13.3921 11.6551 13.3741 11.8698 13.3741 12.0129V12.3349H13.9822V11.8339C13.9822 11.6193 13.9645 11.5119 13.8751 11.3866C13.8214 11.315 13.714 11.2255 13.5889 11.1719C13.7497 11.1003 14.0183 10.9036 14.0183 10.51C14.0184 10.2237 13.893 10.0626 13.6963 9.93747ZM11.1735 11.8161H9.77796V11.3151H11.1556V10.7963H9.77796V10.349H11.1735V9.8302H9.16968V12.3351H11.1735V11.8161ZM8.72235 9.83008H7.73833L7.00476 11.5298L6.2175 9.83008H5.25138V12.1917L4.23157 9.83008H3.33704L2.26354 12.3349H2.90762L3.14016 11.7802H4.39252L4.62507 12.3349H5.84176V10.3669L6.71839 12.3349H7.23718L8.11394 10.3669V12.3349H8.72222V9.83008H8.72235ZM18.4198 11.2435L18.0082 10.2595L17.5968 11.2435H18.4198ZM13.2312 10.85C13.1418 10.9037 13.0523 10.9037 12.927 10.9037H12.1933V10.3491H12.9269C13.0343 10.3491 13.1593 10.3491 13.231 10.3849C13.3025 10.4386 13.3384 10.5102 13.3384 10.6175C13.3384 10.7247 13.3026 10.8141 13.2312 10.85V10.85ZM3.35481 11.2435L3.76634 10.2595L4.17787 11.2435H3.35481V11.2435ZM23.5905 1.97559H2.24551V10.9931L2.97908 9.32918H4.53558L4.75036 9.74071V9.32918H6.57533L6.98687 10.2237L7.3805 9.32918H13.1954C13.4636 9.32918 13.6961 9.38288 13.8752 9.52593V9.32918H15.4675V9.52593C15.7358 9.38275 16.0757 9.32918 16.4694 9.32918H18.7774L18.9922 9.74071V9.32918H20.6919L20.9425 9.74071V9.32918H22.6062V12.8359H20.9246L20.6027 12.2993V12.8359H18.5092L18.2767 12.2635H17.7576L17.5251 12.8359H16.4338C16.0044 12.8359 15.6822 12.7286 15.4677 12.6213V12.8359H12.8733V12.0308C12.8733 11.9234 12.8554 11.9055 12.7838 11.9055H12.6945V12.8358H7.68464V12.3885L7.50579 12.8358H6.45018L6.27132 12.4064V12.8358H4.24947L4.03482 12.2633H3.5159L3.28335 12.8358H2.24551V23.4099H23.5905V16.9867C23.358 17.0941 23.0358 17.1477 22.7137 17.1477H21.1571V16.933C20.9783 17.0763 20.6561 17.1477 20.3521 17.1477H15.4496V16.3427C15.4496 16.2353 15.4319 16.2353 15.3422 16.2353H15.2529V17.1477H13.6426V16.1995C13.3743 16.3247 13.0701 16.3247 12.8017 16.3247H12.6227V17.1477H10.6547L10.1896 16.6109L9.67083 17.1477H6.50374V13.6411H9.72426L10.1895 14.1777L10.6905 13.6411H12.8554C13.1057 13.6411 13.5174 13.6768 13.6963 13.8556V13.6411H15.6285C15.8254 13.6411 16.2012 13.6768 16.4516 13.8556V13.6411H19.3679V13.8558C19.529 13.7126 19.8333 13.6412 20.1015 13.6412H21.7296V13.8558C21.9087 13.7306 22.159 13.6412 22.4812 13.6412H23.5905V1.97559V1.97559Z" fill="#53555E"/>
</svg>
