<svg width="81" height="18" viewBox="0 0 81 18" fill="none" xmlns="http://www.w3.org/2000/svg">
<path d="M35.8301 10.97H30.5561V12.168L30.7199 12.1507L30.7238 12.131C30.7591 11.9539 31.0763 11.615 31.4668 11.615H32.6447L32.6453 17.7617H33.796L33.7893 11.6195H34.9943C35.3922 11.6195 35.6531 11.8378 35.6974 12.0431L35.7025 12.0655L35.8694 12.0604L35.8581 10.97H35.8301V10.97ZM1.61209 10.558L1.63186 10.5772L1.61209 10.558C0.849054 11.3516 0.411621 12.4388 0.411621 13.5427C0.411621 14.7708 0.906946 15.8874 1.80695 16.6866C2.66656 17.4502 3.81592 17.8704 5.0435 17.8704C5.68652 17.8704 6.94742 17.7608 8.16399 17.0283L8.21115 16.9998L8.35602 15.2704L8.12869 15.241L8.09508 15.3116C7.20186 17.1794 5.79552 17.1794 5.26603 17.1794C2.89446 17.1794 1.81401 15.2122 1.81401 13.3845C1.81401 11.6167 2.88401 9.83254 5.2745 9.83254C6.0076 9.83254 7.34052 10.0726 8.03408 11.6757L8.07249 11.7644L8.29558 11.6961L8.14987 9.89353L8.09056 9.86784C6.97651 9.38183 6.07792 9.1658 5.17735 9.1658C3.72188 9.1658 2.48893 9.64728 1.61209 10.558V10.558ZM9.48984 10.9692H9.4616L9.46358 11.1262L9.47798 11.1335C9.57428 11.1849 9.68187 11.4462 9.68187 11.7393L9.68159 17.7614H10.8115L10.8069 14.6669L11.3011 14.6796C11.7451 14.7045 11.9202 14.9984 12.1421 15.3706L12.1698 15.4167L12.3118 15.6564C12.5533 16.0639 12.8843 16.6231 13.2282 17.1333C13.4753 17.5007 13.784 17.7117 14.1714 17.7786C14.4479 17.8266 15 17.808 15.2078 17.7442L15.4566 17.6795L15.5509 17.6552L15.2078 17.5493C15.0694 17.507 14.8514 17.4112 14.5583 17.0726C14.3767 16.8631 14.083 16.3946 13.6385 15.6849L13.198 14.984L13.1895 14.9716C13.0718 14.7996 12.8747 14.5203 12.5434 14.343C13.1796 14.1349 13.8043 13.5551 13.8043 12.6912C13.8043 12.4464 13.7413 11.9759 13.3208 11.5775C12.8944 11.1731 12.2302 10.9686 11.3463 10.9686L9.48984 10.9692V10.9692ZM11.4228 11.5814C12.5818 11.6303 12.6151 12.6105 12.6151 12.7215C12.6151 13.7076 11.8868 14.0575 11.2633 14.0575L10.8103 14.0479V11.5919C11.0141 11.576 11.2187 11.5725 11.4228 11.5814V11.5814ZM21.0506 10.9692H21.0193L21.0404 11.1375L21.0537 11.144C21.1523 11.1931 21.2452 11.4363 21.2452 11.6444L21.2384 17.7611H23.1748C24.4532 17.7611 25.5114 17.3632 26.2346 16.6112C26.839 15.9769 27.1772 15.135 27.1798 14.2588C27.1798 13.733 27.0024 12.9386 26.5046 12.2874C25.837 11.4128 24.7785 10.9695 23.3581 10.9695L21.0506 10.9692V10.9692ZM22.3897 11.621L22.9958 11.6227C23.157 11.6249 23.5642 11.6348 23.8503 11.678C25.7528 11.9663 25.9581 13.5788 25.9581 14.2591C25.9581 14.8163 25.8587 15.609 25.3857 16.2223C24.9217 16.8244 24.1943 17.1294 23.2231 17.1294C22.9915 17.1294 22.7035 17.1288 22.3895 17.1141L22.3897 11.621ZM29.5189 10.9692H28.1916L28.1961 11.1335L28.2111 11.1412C28.3334 11.2019 28.4124 11.4227 28.4124 11.7034L28.4121 17.7608H29.5451L29.5468 10.9686L29.5189 10.9692V10.9692ZM52.3402 10.9692H51.0048L51.018 11.122L51.0319 11.129C51.1522 11.1892 51.2332 11.4196 51.2332 11.7034V17.7608H52.3662L52.3679 10.9686L52.3402 10.9692V10.9692ZM19.5864 10.9692H15.7893L15.8107 11.1285L15.8237 11.1347C15.9274 11.1861 16.0347 11.4261 16.0347 11.7387L16.0341 17.7608H19.8264L20.102 16.5573L19.9493 16.5025L19.9063 16.5694C19.5926 17.0627 19.2741 17.1283 18.1738 17.1283C17.7819 17.1362 17.3995 17.102 17.16 17.0797V14.3082H19.0784V13.696L17.16 13.6957V11.5828L18.7152 11.6006C19.0656 11.6006 19.4508 11.9361 19.4847 12.1383L19.489 12.162L19.6443 12.1584L19.6138 10.9681H19.5864V10.9692V10.9692ZM68.1307 10.9692H64.346L64.3537 11.1429L64.3686 11.1496C64.4706 11.201 64.5793 11.425 64.5793 11.7387L64.5787 17.7608H68.3708L68.647 16.5561L68.4758 16.503L68.4335 16.5694C68.1197 17.0627 67.8046 17.1283 66.7193 17.1283C66.3271 17.1362 65.945 17.102 65.7055 17.0797V14.3082H67.6238V13.696L65.7055 13.6957V11.5828L67.2609 11.6006C67.6902 11.6006 68.0127 11.9276 68.0127 12.14V12.1694L68.1892 12.1578L68.159 10.9686L68.1307 10.9692V10.9692ZM39.1305 9.69925C38.7309 9.98673 38.2528 10.5145 38.2435 11.401V11.427C38.2435 12.5167 38.9379 13.0894 40.0568 13.6568L40.0528 13.6457C40.0816 13.6695 40.1791 13.7197 40.4829 13.8745C41.4174 14.3435 42.0923 14.6827 42.0923 15.6364C42.0923 15.9637 41.9683 16.4355 41.6224 16.7784C41.3341 17.0639 40.9463 17.2062 40.4702 17.2011C39.0438 17.1862 38.5389 15.936 38.3881 15.3983L38.3621 15.3054L38.1224 15.3452L38.1887 17.1204L38.2404 17.1497C38.6956 17.4146 39.4575 17.8574 40.5484 17.8684C41.3214 17.8761 42.105 17.5615 42.645 17.0269C43.1194 16.5575 43.3696 15.9625 43.3696 15.3068C43.3696 13.8666 42.3383 13.3264 41.2445 12.7539L41.0392 12.6461C39.9195 12.0838 39.3926 11.7415 39.3999 11.0355C39.405 10.556 39.7662 9.7978 40.7145 9.8074C41.817 9.81842 42.4261 10.6484 42.5504 11.168L42.5729 11.2623L42.8104 11.2318L42.7294 9.69529L42.6853 9.66536C42.0322 9.2251 41.2132 9.17032 40.891 9.16721C40.2522 9.16071 39.61 9.35444 39.1305 9.69925V9.69925ZM54.169 12.6867C54.1597 13.6277 54.7245 14.1044 55.6395 14.5686L55.9848 14.7443C56.7052 15.1063 57.1816 15.3452 57.1816 16.0216C57.1816 16.1396 57.1573 16.5491 56.843 16.8606C56.6253 17.0763 56.3229 17.1836 55.9456 17.1797C54.8651 17.1689 54.4686 16.3285 54.328 15.8287L54.3015 15.7355L54.0722 15.7733L54.1255 17.2039L54.1775 17.2333C54.5375 17.4429 55.1399 17.793 56.0063 17.8023C56.6208 17.8086 57.244 17.5586 57.6733 17.1328C58.0511 16.7589 58.2508 16.285 58.2508 15.762C58.2508 14.5726 57.4279 14.1419 56.557 13.6853L56.4031 13.6045C55.4675 13.1346 55.141 12.9237 55.1464 12.3992C55.1498 12.031 55.4257 11.4868 56.1701 11.4942C57.0803 11.5032 57.4779 12.1617 57.5612 12.5091L57.5832 12.6037L57.8125 12.574L57.747 11.3315L57.7024 11.3018C57.1828 10.9517 56.533 10.9079 56.2771 10.9059C55.2639 10.8949 54.1812 11.5162 54.169 12.6867V12.6867ZM59.2544 12.6867C59.2451 13.6274 59.8099 14.1044 60.7254 14.5689L61.0702 14.7443C61.7912 15.1063 62.267 15.3455 62.267 16.0216C62.267 16.1396 62.2422 16.5491 61.9284 16.8606C61.7107 17.0763 61.4083 17.1836 61.031 17.1797C59.9511 17.1689 59.554 16.3285 59.4137 15.8287L59.3869 15.7355L59.1576 15.7733L59.2109 17.2037L59.2629 17.2333C59.623 17.4429 60.2259 17.793 61.0917 17.8023C61.7065 17.8086 62.3294 17.5586 62.7587 17.1328C63.1368 16.7589 63.3365 16.285 63.3365 15.762C63.3365 14.5726 62.5141 14.1419 61.6427 13.6853L61.4888 13.6045C60.5532 13.1349 60.2264 12.9237 60.2318 12.3992C60.2372 12.1602 60.3354 11.9325 60.5054 11.7644C60.6882 11.5842 60.9482 11.4908 61.2561 11.4942C62.1665 11.5032 62.5633 12.1617 62.646 12.5094L62.6692 12.6037L62.8979 12.574L62.8324 11.3315L62.7878 11.3018C62.2682 10.9517 61.6178 10.9079 61.3631 10.9059C60.3498 10.8949 59.2666 11.5162 59.2544 12.6867V12.6867ZM49.5222 10.9635L48.6298 10.9695L48.6442 11.1222L48.658 11.129C48.7027 11.1513 48.8495 11.2578 48.8495 11.687L48.8549 15.5477C48.8549 16.2955 48.5804 17.1876 47.2737 17.1876C46.0394 17.1876 45.7861 16.4494 45.7861 15.3407L45.7872 10.9695H44.3752L44.3857 11.1208L44.3989 11.1279C44.4893 11.1756 44.6415 11.3549 44.6415 11.7218V15.3404C44.6415 17.5883 46.119 17.8484 47.2311 17.8484C47.7739 17.8484 49.5453 17.6837 49.5453 15.5644L49.5504 10.9633L49.5222 10.9635ZM77.8771 9.02912C78.6757 9.28553 79.5229 9.64531 80.4116 10.1418C78.2301 6.53809 74.3274 2.61334 70.4983 0.0700684C71.4856 1.04716 73.0874 3.19818 73.5028 5.5048C75.0715 6.62253 76.5518 7.81199 77.8771 9.02912V9.02912ZM77.8746 9.02771C76.0031 8.42563 74.4081 8.3957 73.2243 8.51741C73.6409 7.54117 73.6832 6.51126 73.5039 5.50988C70.6059 3.44528 67.412 1.62099 64.341 0.318578C66.5945 1.84437 69.0787 6.24581 70.1214 10.9672C72.3424 10.3095 75.7634 9.85569 80.173 11.3397C79.4794 10.5656 78.7074 9.79131 77.8746 9.02771V9.02771Z" fill="white"/>
</svg>
