<svg width="50" height="25" viewBox="0 0 50 25" fill="none" xmlns="http://www.w3.org/2000/svg">
<path d="M10.8386 8.16954C11.3197 8.00918 11.8328 7.92366 12.3652 7.92366C14.6958 7.92366 16.6415 9.57858 17.0862 11.7787L20.3897 11.1052C19.6328 7.36774 16.3272 4.55396 12.3652 4.55396C11.4565 4.55396 10.5863 4.70149 9.76953 4.97517L10.8386 8.16954Z" fill="#9E9E9E"/>
<path d="M6.79695 18.4706L8.9812 16.0021C8.00717 15.1389 7.39266 13.8785 7.39266 12.4739C7.39266 11.0714 8.00717 9.811 8.9812 8.94985L6.79695 6.47925C5.14153 7.94656 4.09644 10.089 4.09644 12.4739C4.09644 14.8609 5.14153 17.0033 6.79695 18.4706" fill="#9E9E9E"/>
<path d="M16.7151 13.4187C16.2783 15.5674 14.3783 17.1831 12.1021 17.1831C11.5795 17.1831 11.0758 17.0995 10.6076 16.9407L9.5625 20.0676C10.361 20.333 11.2137 20.4773 12.1021 20.4773C15.971 20.4773 19.2003 17.7308 19.9444 14.0813L16.7151 13.4187Z" fill="#9E9E9E"/>
<path d="M22.7683 16.1048C22.6617 15.9334 22.5196 15.6596 22.4318 15.4568C21.9197 14.2696 21.8967 13.0406 22.3273 11.8617C22.8018 10.5679 23.7089 9.57924 24.8815 9.07341C26.3551 8.44008 27.9833 8.56341 29.3963 9.40157C30.293 9.91576 30.9284 10.71 31.4112 11.8345C31.4718 11.9788 31.5262 12.1314 31.5805 12.263L22.7683 16.1048ZM25.7113 10.9817C24.6641 11.4311 24.1248 12.4135 24.2377 13.5631L28.6689 11.6548C27.906 10.7602 26.9152 10.4634 25.7113 10.9817ZM29.2207 15.1329C29.2186 15.1329 29.2186 15.1349 29.2186 15.1349L29.1266 15.0722C28.8612 15.5007 28.4494 15.8498 27.929 16.0755C26.9382 16.5061 26.0206 16.3953 25.3601 15.8163L25.2995 15.9083C25.2995 15.9083 25.2995 15.9062 25.2974 15.9062L24.1729 17.5888C24.453 17.7832 24.7519 17.9462 25.0654 18.0779C26.307 18.5942 27.5778 18.5691 28.8298 18.0257C29.7349 17.6327 30.4456 17.0349 30.9305 16.2762L29.2207 15.1329ZM34.6594 6.59863V15.9501L36.1141 16.5395L35.2885 18.4667L33.6832 17.7978C33.3237 17.6411 33.0771 17.4028 32.8932 17.1332C32.7155 16.8593 32.5838 16.481 32.5838 15.9752V6.59863H34.6594ZM38.4259 13.5694C38.4259 12.773 38.7791 12.0582 39.3351 11.5733L37.8427 9.90948C36.8311 10.8041 36.1936 12.1104 36.1936 13.5652C36.1915 15.0221 36.829 16.3305 37.8385 17.2251L39.3288 15.5613C38.7749 15.0743 38.4259 14.3637 38.4259 13.5694ZM41.0762 16.2218C40.7836 16.2218 40.4993 16.1717 40.236 16.0839L39.5232 18.2012C40.0102 18.3643 40.5307 18.4542 41.0741 18.4542C43.436 18.4562 45.4071 16.7799 45.8648 14.5539L43.6743 14.1066C43.4256 15.3168 42.3575 16.2239 41.0762 16.2218ZM41.0825 8.68464C40.5411 8.68464 40.0207 8.77242 39.5337 8.93337L40.2402 11.0528C40.5056 10.965 40.7878 10.917 41.0804 10.917C42.3638 10.919 43.434 11.8304 43.6764 13.0427L45.8669 12.5996C45.4175 10.3693 43.4465 8.68673 41.0825 8.68464Z" fill="white"/>
</svg>
